<?xml version="1.0" encoding="UTF-8"?><svg id="a" xmlns="http://www.w3.org/2000/svg" viewBox="0 0 800 600.7"><path d="M564.59,115.24c1.82,.12,3.66,.12,5.46,.38,6.34,.9,9.14,4.17,9.17,10.68,.06,10.23-3.33,19.6-7.54,28.67-10.95,23.55-27.06,43.17-46.45,60.24-17.48,15.38-36.5,28.54-57.57,38.47-7.58,3.57-15.77,5.86-23.76,8.48-1.96,.64-4.27,.53-6.39,.37-6.47-.5-9.27-5.03-7.72-12.36,2.17-10.26,6.6-19.67,11.48-28.84,13.9-26.13,30.63-50.22,52.56-70.33,16.12-14.78,33.96-26.92,55.28-33.02,5.02-1.43,10.25-2.11,15.38-3.14l.1,.4Z"/><path d="M220.61,114.27c13.52,.46,25.66,5.38,37.24,11.9,20.2,11.38,36.93,26.82,51.66,44.55,15.69,18.89,29.26,39.16,39.44,61.57,2.11,4.64,3.8,9.55,5.05,14.49,2.82,11.07-2.74,15.9-14.11,13.59-11.33-2.3-21.66-7.33-31.73-12.77-26.66-14.41-50.61-32.34-70.18-55.67-13.52-16.12-25.14-33.41-30.44-54.16-1.05-4.11-1.66-8.45-1.65-12.69,.02-6.95,3.56-10.28,10.53-10.79,1.39-.1,2.79-.01,4.19-.01Z"/><path d="M216.24,356.61c-19.12-.19-37.87-2.5-55.32-10.92-4.37-2.11-8.49-5.03-12.17-8.21-4.77-4.13-4.99-8.08-1.55-13.4,4.42-6.83,10.74-11.62,17.47-15.93,14.36-9.2,30.21-14.47,46.82-17.82,14.61-2.95,29.39-3.93,44.2-3.1,22.83,1.28,45.39,4.4,66.81,12.97,4.09,1.64,7.98,4.2,11.37,7.05,4.27,3.59,4.57,7.76,.67,11.77-3.68,3.79-7.92,7.29-12.47,9.96-15.41,9.02-32.14,14.93-49.32,19.6-18.5,5.03-37.32,7.82-56.5,8.03Z"/><path d="M392.1,194.59c.57-33.96,4.25-62.97,15.5-90.59,6.32-15.52,14.25-30.09,26.99-41.43,2.52-2.24,5.55-4.02,8.59-5.55,3.2-1.61,6.67-.95,8.8,1.79,3.18,4.1,6.39,8.4,8.43,13.11,5.98,13.85,7.49,28.62,6.84,43.51-1.85,42.3-16.66,80.23-39.98,115.08-3.29,4.92-7.61,9.36-12.17,13.16-6.28,5.23-11.7,4.1-15.01-3.38-2.77-6.28-4.77-13.11-5.78-19.9-1.48-9.95-1.76-20.08-2.21-25.79Z"/><path d="M515.06,293.71c26.2,.36,49.25,3.47,71.07,12.83,13.43,5.76,25.73,13.27,35.11,24.83,.07,.08,.15,.16,.21,.24,6.66,8.73,5.83,14.21-3.21,20.31-8.77,5.93-18.7,8.86-28.98,10.65-26.45,4.6-52.38,1.35-77.86-6.04-20.74-6.01-40.5-14.44-58.33-26.82-3.73-2.59-7.08-5.93-9.96-9.45-3.03-3.7-2.75-7.72,1.06-10.47,4.35-3.14,9.22-5.89,14.26-7.68,12.47-4.41,25.54-6.21,38.69-7.26,6.85-.54,13.71-.88,17.93-1.14Z"/><path d="M381.57,382.8c-.82,28.46-4.64,56.37-15.3,83-7.62,19.02-17.71,36.49-33.24,50.24-3.71,3.29-8.12,5.96-12.58,8.19-4.49,2.25-8.32,1.13-10.64-3.43-2.58-5.08-4.92-10.55-5.91-16.11-4.44-25.08,.05-49.3,8.53-72.9,8.84-24.6,21.27-47.29,38.07-67.38,3.87-4.62,8.6-8.75,13.58-12.16,6.58-4.5,12.42-2.55,14.42,5.16,2.13,8.21,2.74,16.82,4.02,25.25l-.95,.14Z"/><path d="M386.44,215.76c-.88,7.32-1.75,14.64-2.67,21.95-.1,.84-.43,1.66-.74,2.45-2.39,5.97-6.12,7.3-11.64,4.01-6.49-3.86-11.38-9.5-15.83-15.42-20.21-26.9-35.64-56.2-43.63-89.08-4.04-16.61-5.68-33.42-2.3-50.37,.76-3.84,2.1-7.66,3.78-11.19,2.88-6.02,6.58-7.1,12.61-4.15,7.57,3.71,13.51,9.45,18.95,15.73,18.05,20.88,27.95,45.65,34.25,72.13,4.21,17.7,6.42,35.64,7.22,53.92Z"/><path d="M552.72,455.6c0,.43,0,.86,0,1.29-.18,8.49-3.73,12.18-12.05,10.95-6.69-.99-13.46-2.66-19.7-5.23-19.44-8.02-35.1-21.36-48.99-36.81-16.68-18.55-29.89-39.39-39.58-62.41-2.74-6.52-5.15-13.18-4.85-20.46,.21-5,2.62-7.42,7.64-7.5,6.38-.11,12.27,1.93,17.89,4.57,36.72,17.26,66.98,41.92,87.57,77.39,6.83,11.78,11.45,24.4,12.06,38.21Z"/><path d="M341.86,334.87c.75,0,1.51-.04,2.26,0,6.01,.36,9,4.11,7.75,9.97-1.79,8.4-5.65,15.9-10.33,23.03-8.4,12.81-16.44,25.89-25.33,38.35-4.76,6.68-10.74,12.57-16.6,18.38-13.96,13.86-29.38,25.86-47.91,32.97-7.01,2.69-14.64,3.83-22.05,5.33-2.1,.43-4.51-.09-6.67-.63-4.22-1.05-5.9-4.57-5.36-10.32,1.04-11.09,4.91-21.26,10.26-30.87,11.41-20.47,27.07-37.29,45.25-51.87,15.57-12.49,32.48-22.78,51.04-30.15,5.61-2.22,11.61-3.43,17.44-5.11l.24,.9Z"/><path d="M389.83,393.82c1.2-10.09,1.77-20.3,3.78-30.23,2.37-11.73,8.97-13.62,18.37-6.07,9.72,7.81,16.44,18.06,22.62,28.64,12.91,22.09,22.25,45.59,26.33,70.94,2.6,16.12,2.96,32.29-1.79,48.15-1.09,3.64-2.88,7.15-4.86,10.42-2.93,4.84-6.66,5.87-11.84,3.5-7.72-3.53-13.42-9.57-18.68-15.99-14.66-17.9-22.71-38.86-27.72-61.13-3.56-15.83-5.57-31.87-5.32-48.14l-.91-.1Z"/><path d="M211.06,223.22c21.93,.45,40.49,5.23,58.44,12.66,21.39,8.85,41.55,19.88,59.74,34.29,3.17,2.51,6.05,5.5,8.55,8.68,2.94,3.74,2.07,7.05-2.51,8.05-5.8,1.28-11.88,2.14-17.78,1.9-21.78-.89-43.26-4.25-64.24-10.17-19.98-5.64-39.11-13.4-55.44-26.64-4.62-3.75-8.8-8.22-12.46-12.92-4.35-5.58-2.91-9.54,3.74-12.15,2.37-.93,4.88-1.73,7.39-2.08,5.62-.79,11.28-1.27,14.58-1.62Z"/><path d="M568.53,227.39c7.43,1.2,14.92,2.33,22.38,3.66,1.64,.29,3.25,1.13,4.71,1.98,3.81,2.24,4.47,4.65,2.45,8.64-3.44,6.79-8.93,11.76-14.89,16.22-17.01,12.73-36.46,20.12-56.84,25.16-19.5,4.81-39.33,7.71-59.45,8.02-5.31,.08-10.78-.25-15.9-1.49-6.98-1.69-8.33-5.63-3.58-10.93,4.61-5.13,9.84-9.99,15.58-13.79,23.56-15.6,48.81-27.65,76.66-33.41,9.41-1.95,19.06-2.71,28.88-4.06Z"/><path d="M389.81,338.92c-23.06-.02-41.75-18.32-41.45-41.01,.3-22.92,18.26-40.62,41.54-40.78,23.37-.16,41.61,18.32,41.6,41.26,0,22.28-18.82,40.56-41.69,40.54Z"/><path d="M386.51,403.15c.33,3.68,.7,7.37,.98,11.05,1.66,21.59,6.26,42.5,14.01,62.76,1.04,2.71,.06,6.31-.38,9.44-2.21,15.75-7.01,30.5-17.54,42.83-8.83,10.35-20.26,15.06-34.16,15.12,.45-.87,.69-1.53,1.1-2.06,14.5-18.88,22.45-40.5,26.78-63.66,2.99-15.98,3.58-32.17,4.65-48.35,.6-9.1,2.3-18.13,3.51-27.19l1.06,.05Z"/></svg>